<?xml version="1.0" standalone="no"?><!DOCTYPE svg PUBLIC "-//W3C//DTD SVG 1.1//EN" "http://www.w3.org/Graphics/SVG/1.1/DTD/svg11.dtd"><svg class="icon" width="200px" height="58.35px" viewBox="0 0 3510 1024" version="1.1" xmlns="http://www.w3.org/2000/svg"><path d="M0 0m0 0l1903.347199 0q0 0 0 0l0 555.142933q0 0 0 0l-1903.347199 0q0 0 0 0l0-555.142933q0 0 0 0Z" fill="#D8D8D8" fill-opacity="0" /><path d="M310.840389 196.28268q69.154948 3.410164 151.435062 50.755925 4.361837 2.537796 9.159858 4.282531 2.775715 1.03098 5.591083 1.744735 2.855021 0.713755 5.749694 1.189592 2.894674 0.436184 5.829001 0.634449 2.934327 0.158612 5.868654 0 2.934327-0.079306 5.868654-0.475836 2.894674-0.396531 5.789348-1.070633 2.855021-0.674102 5.630735-1.625776 2.775715-0.951674 5.511776-2.180919 2.656755-1.189592 5.234205-2.696408 2.537796-1.467163 4.956634-3.172245 2.379184-1.705082 4.639408-3.648083 2.220572-1.903347 4.242878-4.044612 2.022306-2.141266 3.846348-4.441144 1.784388-2.339531 3.370511-4.798021 1.586123-2.498143 2.894673-5.075592 1.308551-2.617102 2.379184-5.353164 1.863694-4.877327 2.894674-9.95292 0.991327-5.115246 1.070633-10.309798 0.118959-5.154899-0.713755-10.309797-0.793061-5.075593-2.537796-9.913266-1.705082-4.91698-4.242878-9.397777-2.577449-4.52045-5.868654-8.485757-3.330858-3.965307-7.296165-7.296164-3.965307-3.330858-8.485756-5.94796-107.102933-61.620866-205.125314-66.418886-102.979014-5.075593-191.841536 51.667945l-0.079306 0.039653q-8.128879 5.234205-14.275104 12.688982-6.106572 7.415123-9.596042 16.376716-1.03098 2.736062-1.824041 5.55143-0.793061 2.775715-1.268899 5.670388-0.51549 2.855021-0.713755 5.749695-0.237918 2.894674-0.158612 5.789348t0.396531 5.789347q0.396531 2.855021 1.030979 5.710042 0.674102 2.775715 1.586123 5.551429t2.101613 5.392817q1.189592 2.617102 2.656755 5.154899 1.467163 2.45849 3.172245 4.837674 1.665429 2.339531 3.568776 4.480797 1.943 2.180919 4.084266 4.163572 2.101613 1.982653 4.441144 3.727388 2.299878 1.744735 4.798021 3.251551 2.498143 1.506817 5.154898 2.775715 2.577449 1.268898 5.353164 2.260225 6.503103 2.379184 13.482043 3.251551 6.899634 0.793061 13.878573 0 6.97894-0.753408 13.601002-3.092939 6.622062-2.339531 12.530369-6.106572Q246.642075 193.110435 310.840389 196.28268zM1683.034761 422.027588l0.079306 0.079306q9.833961 11.261471 24.029758 16.456023 2.775715 1.03098 5.591083 1.744735 2.855021 0.753408 5.749694 1.189592t5.829001 0.634449q2.934327 0.158612 5.868654 0.039653t5.868654-0.51549q2.894674-0.396531 5.789348-1.070632 2.855021-0.674102 5.630735-1.625776 2.775715-0.951674 5.511776-2.180919 2.656755-1.189592 5.234205-2.696408 2.537796-1.467163 4.956633-3.172246 2.379184-1.705082 4.639409-3.648082 2.220572-1.903347 4.242878-4.044613 2.022306-2.141266 3.846348-4.441143 1.784388-2.339531 3.37051-4.798021 1.586123-2.45849 2.894674-5.075593 1.308551-2.617102 2.379184-5.353164 1.42751-3.727388 2.379184-7.613389 0.912021-3.846347 1.308552-7.811654 0.396531-3.965307 0.277571-7.930613-0.158612-3.965307-0.793061-7.851307-0.713755-3.925654-1.903348-7.692695-1.189592-3.767041-2.894673-7.335817t-3.886001-6.859981q-2.180919-3.330858-4.758368-6.304838h-0.039653Q1674.945535 230.503276 1533.859924 210.161253q-135.732447-19.548962-304.932083 49.566334-5.749695 2.379184-10.904593 5.789347-5.154899 3.449817-9.516736 7.851307-4.361837 4.40149-7.692695 9.596043-3.330858 5.154899-5.551429 10.904593-1.070633 2.736062-1.863694 5.551429-0.793061 2.775715-1.268898 5.670389-0.51549 2.855021-0.713756 5.749694-0.237918 2.894674-0.158612 5.789348t0.436184 5.789348q0.396531 2.894674 0.991327 5.710041 0.674102 2.775715 1.586122 5.55143t2.101613 5.392817q1.189592 2.617102 2.656755 5.154899 1.467163 2.45849 3.172246 4.837674 1.665429 2.339531 3.568776 4.520449 1.982653 2.141266 4.084265 4.123919 2.141266 1.982653 4.441144 3.727388 2.339531 1.744735 4.798021 3.251552 2.498143 1.506817 5.154899 2.775715 2.577449 1.268898 5.353164 2.299877 10.547716 3.846347 21.848839 3.60843 11.340777-0.237918 21.809187-4.52045h0.079306q138.468509-56.545273 241.487176-41.715026 97.586197 14.037186 168.208309 94.850135z" fill="#3B3B3B" /></svg>